#N canvas 410 260 447 462 12;
#X obj 76 24 inlet;
#X obj 76 75 list split 2;
#X obj 76 209 unpack f f;
#X obj 216 24 inlet;
#X obj 43 293 outlet;
#X obj 123 273 outlet;
#X obj 43 248 pack f f f;
#X obj 123 248 pack f f f;
#X text 38 315 [index \, f \, time];
#X text 120 294 [index \, q \, time];
#X obj 139 126 + 1;
#X obj 108 126 f 1;
#X msg 157 96 1;
#X obj 76 51 list;
#X obj 216 48 ii 50;
#X obj 53 101 t b b l;
#X connect 0 0 13 0;
#X connect 1 0 15 0;
#X connect 1 1 13 1;
#X connect 1 2 12 0;
#X connect 2 0 6 1;
#X connect 2 1 7 1;
#X connect 3 0 14 0;
#X connect 6 0 4 0;
#X connect 7 0 5 0;
#X connect 10 0 11 1;
#X connect 11 0 10 0;
#X connect 11 0 6 0;
#X connect 11 0 7 0;
#X connect 12 0 11 1;
#X connect 13 0 1 0;
#X connect 14 0 7 2;
#X connect 14 0 6 2;
#X connect 15 0 13 0;
#X connect 15 1 11 0;
#X connect 15 2 2 0;
