#N canvas 650 172 717 284 12;
#X obj 53 27 inlet;
#X obj 53 66 formant-list-split;
#X obj 176 27 inlet;
#X obj 54 211 outlet~;
#X obj 54 185 line~;
#X obj 114 211 outlet~;
#X obj 114 185 line~;
#X obj 53 100 route 1 2 3 4 5;
#X obj 184 211 outlet~;
#X obj 184 185 line~;
#X obj 244 211 outlet~;
#X obj 244 185 line~;
#X obj 314 211 outlet~;
#X obj 314 185 line~;
#X obj 374 211 outlet~;
#X obj 374 185 line~;
#X obj 444 211 outlet~;
#X obj 444 185 line~;
#X obj 504 211 outlet~;
#X obj 504 185 line~;
#X obj 574 211 outlet~;
#X obj 574 185 line~;
#X obj 634 211 outlet~;
#X obj 634 185 line~;
#X obj 176 100 route 1 2 3 4 5;
#X connect 0 0 1 0;
#X connect 1 0 7 0;
#X connect 1 1 24 0;
#X connect 2 0 1 1;
#X connect 4 0 3 0;
#X connect 6 0 5 0;
#X connect 7 0 4 0;
#X connect 7 1 9 0;
#X connect 7 2 13 0;
#X connect 7 3 17 0;
#X connect 7 4 21 0;
#X connect 9 0 8 0;
#X connect 11 0 10 0;
#X connect 13 0 12 0;
#X connect 15 0 14 0;
#X connect 17 0 16 0;
#X connect 19 0 18 0;
#X connect 21 0 20 0;
#X connect 23 0 22 0;
#X connect 24 0 6 0;
#X connect 24 1 11 0;
#X connect 24 2 15 0;
#X connect 24 3 19 0;
#X connect 24 4 23 0;
