#N canvas 88 70 1226 719 12;
#X floatatom 104 223 5 0 0 0 - - -;
#X obj 104 244 sig~;
#X floatatom 124 272 5 0.1 4 0 - - -;
#X obj 112 347 env~;
#X floatatom 112 371 5 0 0 0 - - -;
#X obj 103 614 env~;
#X floatatom 103 638 5 0 0 0 - - -;
#X obj 239 685 dac~;
#X obj 55 538 tgl 15 0 empty empty signal_on 17 7 0 10 -262144 -1 -1
0 1;
#X obj 55 582 line~;
#X obj 145 297 formant-env, f 27;
#X floatatom 331 273 5 0 0 0 - - -;
#X obj 103 21 notein;
#X obj 103 45 pack;
#X obj 103 94 pack f f f;
#X obj 103 118 route 1 2 3 4;
#X obj 143 223 != 0;
#X obj 104 199 unpack;
#X obj 83 22 bng 15 250 50 0 empty empty empty 17 7 0 10 -262144 -1
-1;
#X floatatom 379 223 5 0 0 0 - - -;
#X obj 379 244 sig~;
#X floatatom 398 272 5 0.1 4 0 - - -;
#X obj 386 347 env~;
#X floatatom 386 371 5 0 0 0 - - -;
#X obj 419 297 formant-env, f 27;
#X floatatom 605 273 5 0 0 0 - - -;
#X obj 418 223 != 0;
#X obj 379 199 unpack;
#X obj 159 345 tgl 15 0 empty empty empty 17 7 0 10 -262144 -1 -1 0
1;
#X msg 159 365 \$1 50;
#X obj 159 389 line~;
#X obj 104 417 *~;
#X obj 432 347 tgl 15 0 empty empty empty 17 7 0 10 -262144 -1 -1 0
1;
#X msg 432 367 \$1 50;
#X obj 432 391 line~;
#X obj 378 415 *~;
#X obj 340 569 rev3~ 95 90 3000 20;
#X obj 104 323 voice 4.4 6 5, f 33;
#X text 622 44 arg1: amp| arg2: q| arg3: res-f;
#X obj 378 323 voice 4.5 3 5.8, f 33;
#X floatatom 654 226 5 0 0 0 - - -;
#X obj 654 247 sig~;
#X floatatom 674 273 5 0.1 4 0 - - -;
#X obj 662 348 env~;
#X floatatom 662 372 5 0 0 0 - - -;
#X obj 695 298 formant-env, f 27;
#X floatatom 881 274 5 0 0 0 - - -;
#X obj 693 226 != 0;
#X obj 654 202 unpack;
#X floatatom 929 229 5 0 0 0 - - -;
#X obj 929 250 sig~;
#X floatatom 948 274 5 0.1 4 0 - - -;
#X obj 936 349 env~;
#X floatatom 936 373 5 0 0 0 - - -;
#X obj 969 299 formant-env, f 27;
#X floatatom 1155 275 5 0 0 0 - - -;
#X obj 968 229 != 0;
#X obj 929 205 unpack;
#X obj 709 346 tgl 15 0 empty empty empty 17 7 0 10 -262144 -1 -1 0
1;
#X msg 709 366 \$1 50;
#X obj 709 390 line~;
#X obj 654 418 *~;
#X obj 982 349 tgl 15 0 empty empty empty 17 7 0 10 -262144 -1 -1 0
1;
#X msg 982 369 \$1 50;
#X obj 982 393 line~;
#X obj 928 417 *~;
#X msg 55 558 \$1 10;
#X msg 273 92 640 12 1080 15 2530 41.6 3350 36.25 4300 38;
#X msg 251 45 240 9.6 1920 48 2800 46.6 3000 37.5 4300 43;
#X msg 241 22 530 21.2 1100 27.5 2400 40 2900 36.25 4200 42;
#X obj 241 117 t l;
#X obj 103 69 poly 4 1;
#X obj 654 324 voice 4.7 5 4.5, f 33;
#X obj 928 325 voice 4.5 2 3, f 33;
#X obj 425 591 tgl 15 0 empty empty reverb_on 17 7 0 10 -262144 -1
-1 0 1;
#X obj 425 635 line~;
#X obj 340 606 *~;
#X obj 370 606 *~;
#X msg 425 611 \$1 10;
#X obj 103 565 *~;
#X msg 262 68 300 15 600 20 2500 41.6 2900 42.5 3600 42;
#X connect 0 0 1 0;
#X connect 1 0 37 0;
#X connect 2 0 37 1;
#X connect 3 0 4 0;
#X connect 5 0 6 0;
#X connect 8 0 66 0;
#X connect 9 0 79 1;
#X connect 10 0 37 2;
#X connect 10 1 37 3;
#X connect 10 2 37 4;
#X connect 10 3 37 5;
#X connect 10 4 37 6;
#X connect 10 5 37 7;
#X connect 10 6 37 8;
#X connect 10 7 37 9;
#X connect 10 8 37 10;
#X connect 10 9 37 11;
#X connect 11 0 10 1;
#X connect 12 0 13 0;
#X connect 12 0 18 0;
#X connect 12 1 13 1;
#X connect 13 0 71 0;
#X connect 14 0 15 0;
#X connect 15 0 17 0;
#X connect 15 1 27 0;
#X connect 15 2 48 0;
#X connect 15 3 57 0;
#X connect 16 0 28 0;
#X connect 17 0 0 0;
#X connect 17 1 16 0;
#X connect 19 0 20 0;
#X connect 20 0 39 0;
#X connect 21 0 39 1;
#X connect 22 0 23 0;
#X connect 24 0 39 2;
#X connect 24 1 39 3;
#X connect 24 2 39 4;
#X connect 24 3 39 5;
#X connect 24 4 39 6;
#X connect 24 5 39 7;
#X connect 24 6 39 8;
#X connect 24 7 39 9;
#X connect 24 8 39 10;
#X connect 24 9 39 11;
#X connect 25 0 24 1;
#X connect 26 0 32 0;
#X connect 27 0 19 0;
#X connect 27 1 26 0;
#X connect 28 0 29 0;
#X connect 29 0 30 0;
#X connect 30 0 31 1;
#X connect 31 0 36 0;
#X connect 31 0 79 0;
#X connect 32 0 33 0;
#X connect 33 0 34 0;
#X connect 34 0 35 1;
#X connect 35 0 36 1;
#X connect 35 0 79 0;
#X connect 36 0 76 0;
#X connect 36 1 77 0;
#X connect 37 0 3 0;
#X connect 37 0 31 0;
#X connect 39 0 22 0;
#X connect 39 0 35 0;
#X connect 40 0 41 0;
#X connect 41 0 72 0;
#X connect 42 0 72 1;
#X connect 43 0 44 0;
#X connect 45 0 72 2;
#X connect 45 1 72 3;
#X connect 45 2 72 4;
#X connect 45 3 72 5;
#X connect 45 4 72 6;
#X connect 45 5 72 7;
#X connect 45 6 72 8;
#X connect 45 7 72 9;
#X connect 45 8 72 10;
#X connect 45 9 72 11;
#X connect 46 0 45 1;
#X connect 47 0 58 0;
#X connect 48 0 40 0;
#X connect 48 1 47 0;
#X connect 49 0 50 0;
#X connect 50 0 73 0;
#X connect 51 0 73 1;
#X connect 52 0 53 0;
#X connect 54 0 73 2;
#X connect 54 1 73 3;
#X connect 54 2 73 4;
#X connect 54 3 73 5;
#X connect 54 4 73 6;
#X connect 54 5 73 7;
#X connect 54 6 73 8;
#X connect 54 7 73 9;
#X connect 54 8 73 10;
#X connect 54 9 73 11;
#X connect 55 0 54 1;
#X connect 56 0 62 0;
#X connect 57 0 49 0;
#X connect 57 1 56 0;
#X connect 58 0 59 0;
#X connect 59 0 60 0;
#X connect 60 0 61 1;
#X connect 61 0 36 0;
#X connect 61 0 79 0;
#X connect 62 0 63 0;
#X connect 63 0 64 0;
#X connect 64 0 65 1;
#X connect 65 0 36 1;
#X connect 65 0 79 0;
#X connect 66 0 9 0;
#X connect 67 0 70 0;
#X connect 68 0 70 0;
#X connect 69 0 70 0;
#X connect 70 0 45 0;
#X connect 70 0 10 0;
#X connect 70 0 24 0;
#X connect 70 0 54 0;
#X connect 71 0 14 0;
#X connect 71 1 14 1;
#X connect 71 2 14 2;
#X connect 72 0 43 0;
#X connect 72 0 61 0;
#X connect 73 0 52 0;
#X connect 73 0 65 0;
#X connect 74 0 78 0;
#X connect 75 0 76 1;
#X connect 75 0 77 1;
#X connect 76 0 7 0;
#X connect 77 0 7 1;
#X connect 78 0 75 0;
#X connect 79 0 7 0;
#X connect 79 0 7 1;
#X connect 79 0 5 0;
#X connect 80 0 70 0;
